<?xml version="1.0" encoding="UTF-8"?> <svg xmlns="http://www.w3.org/2000/svg" id="Layer_1" data-name="Layer 1" viewBox="0 0 110.28 22.83"><defs><style>.cls-1{fill:#39b9c5;}.cls-2{fill:#fff;opacity:0.8;}</style></defs><title>logo-home</title><path class="cls-1" d="M24.51,10a2,2,0,0,1,1.7,1L29,15.77a2,2,0,0,1,0,2l-2.76,4.78a2,2,0,0,1-1.7,1H19a2,2,0,0,1-1.7-1l-2.76-4.78a2,2,0,0,1,0-2L17.28,11A2,2,0,0,1,19,10h5.52m0-.81H19a2.78,2.78,0,0,0-2.41,1.39l-2.76,4.78a2.78,2.78,0,0,0,0,2.78l2.76,4.78A2.78,2.78,0,0,0,19,24.31h5.52a2.78,2.78,0,0,0,2.41-1.39l2.76-4.78a2.78,2.78,0,0,0,0-2.78l-2.76-4.78A2.78,2.78,0,0,0,24.51,9.2Z" transform="translate(-3.09 -3.1)"></path><path class="cls-2" d="M31.39,15.09,28,9.23a3.33,3.33,0,0,0-2.88-1.66H22.69l.47.81h2A2.52,2.52,0,0,1,27.3,9.64l3.38,5.86a2.52,2.52,0,0,1,0,2.51L27.3,23.87a2.52,2.52,0,0,1-2.17,1.25H18.36a2.52,2.52,0,0,1-2.17-1.25l-.44-.77h-.94l.68,1.17a3.33,3.33,0,0,0,2.88,1.66h6.77A3.33,3.33,0,0,0,28,24.28l3.38-5.86a3.33,3.33,0,0,0,0-3.32" transform="translate(-3.09 -3.1)"></path><path class="cls-2" d="M17,4.73H10.24A2.11,2.11,0,0,0,8.42,5.78L5,11.64a2.11,2.11,0,0,0,0,2.1L8.42,19.6a2.11,2.11,0,0,0,1.82,1.05h4.13l-.47-.81H10.24a1.29,1.29,0,0,1-1.12-.65L5.74,13.34a1.29,1.29,0,0,1,0-1.29L9.12,6.18a1.29,1.29,0,0,1,1.12-.65H17a1.29,1.29,0,0,1,1.12.65l1.28,2.22h.94L18.83,5.78A2.11,2.11,0,0,0,17,4.73m-8.47,15,.13.2-.13-.2L5,13.58Z" transform="translate(-3.09 -3.1)"></path><path class="cls-1" d="M14.83,21.47H10.07A2.64,2.64,0,0,1,7.8,20.15L4.25,14a2.64,2.64,0,0,1,0-2.63L7.8,5.23a2.64,2.64,0,0,1,2.28-1.31h7.1a2.64,2.64,0,0,1,2.28,1.31l1.83,3.18h.94L20.15,4.83a3.45,3.45,0,0,0-3-1.72h-7.1a3.45,3.45,0,0,0-3,1.72L3.55,11a3.45,3.45,0,0,0,0,3.44l3.55,6.14a3.45,3.45,0,0,0,3,1.72H15.3Z" transform="translate(-3.09 -3.1)"></path><polygon class="cls-2" points="33.81 5.94 33.81 8.24 36.83 8.24 36.83 9.7 33.81 9.7 33.81 11.99 37.95 11.99 37.95 13.43 32.37 13.43 32.37 4.5 37.95 4.5 37.95 5.94 33.81 5.94"></polygon><path class="cls-2" d="M50.08,15.19a4.68,4.68,0,0,1-3.34,1.44,4.56,4.56,0,1,1,3.2-7.8l-1,1A3.07,3.07,0,0,0,46.73,9a3.11,3.11,0,0,0,0,6.23,3.16,3.16,0,0,0,2.32-1Z" transform="translate(-3.09 -3.1)"></path><polygon class="cls-2" points="55.78 4.5 55.78 13.43 54.34 13.43 54.34 9.7 50.22 9.7 50.22 13.43 48.78 13.43 48.78 4.5 50.22 4.5 50.22 8.24 54.34 8.24 54.34 4.5 55.78 4.5"></polygon><polygon class="cls-2" points="73.92 13.43 68.72 13.43 68.72 4.5 70.16 4.5 70.16 11.99 73.92 11.99 73.92 13.43"></polygon><path class="cls-2" d="M92.19,11.66h3.25v3.67a4.63,4.63,0,0,1-3.19,1.29,4.56,4.56,0,1,1,3.19-7.81l-1,1a3.11,3.11,0,1,0-2.18,5.33A3.23,3.23,0,0,0,94,14.66V13.11H92.19Z" transform="translate(-3.09 -3.1)"></path><polygon class="cls-2" points="101.17 4.5 97.88 9.07 97.88 13.43 96.42 13.43 96.42 9.07 93.13 4.5 94.92 4.5 97.15 7.6 99.38 4.5 101.17 4.5"></polygon><polygon class="cls-2" points="106.97 8.84 110.28 13.43 108.5 13.43 106.08 10.08 103.66 13.43 101.87 13.43 105.19 8.84 102.06 4.5 103.85 4.5 106.08 7.6 108.31 4.5 110.1 4.5 106.97 8.84"></polygon><path class="cls-1" d="M67,16.49H63.51a1.46,1.46,0,0,1-1.26-.73l-1.74-3a1.46,1.46,0,0,1,0-1.45l1.74-3a1.46,1.46,0,0,1,1.26-.73H67a1.46,1.46,0,0,1,1.26.73l1.74,3a1.46,1.46,0,0,1,0,1.45l-1.74,3a1.46,1.46,0,0,1-1.26.73M63.51,8.94a.08.08,0,0,0-.07,0L61.7,12a.08.08,0,0,0,0,.08l1.74,3a.08.08,0,0,0,.07,0H67a.08.08,0,0,0,.07,0l1.74-3a.08.08,0,0,0,0-.08L67.05,9a.08.08,0,0,0-.07,0Z" transform="translate(-3.09 -3.1)"></path><path class="cls-2" d="M83.82,16.49H80.35a1.46,1.46,0,0,1-1.26-.73l-1.74-3a1.46,1.46,0,0,1,0-1.45l1.74-3a1.46,1.46,0,0,1,1.26-.73h3.47a1.46,1.46,0,0,1,1.26.73l1.74,3a1.46,1.46,0,0,1,0,1.45l-1.74,3a1.46,1.46,0,0,1-1.26.73M80.35,8.94a.08.08,0,0,0-.07,0l-1.74,3a.08.08,0,0,0,0,.08l1.74,3a.08.08,0,0,0,.07,0h3.47a.08.08,0,0,0,.07,0l1.74-3a.08.08,0,0,0,0-.08L83.89,9a.08.08,0,0,0-.07,0Z" transform="translate(-3.09 -3.1)"></path><polygon class="cls-2" points="34.58 15.64 33.7 15.64 33.7 18.2 33.2 18.2 33.2 15.64 32.32 15.64 32.32 15.15 34.58 15.15 34.58 15.64"></polygon><path class="cls-2" d="M41.23,21.31h-.61l-.87-1.22h-.48v1.22h-.49V18.25H40A.92.92,0,0,1,40.32,20Zm-1.35-1.71c.37,0,.54-.19.54-.43s-.17-.42-.54-.42h-.61v.85Z" transform="translate(-3.09 -3.1)"></path><path class="cls-2" d="M42.28,20.16V18.25h.49v1.83a.68.68,0,1,0,1.35,0V18.25h.49v1.91a1.17,1.17,0,1,1-2.34,0" transform="translate(-3.09 -3.1)"></path><path class="cls-2" d="M46,21.12a1.34,1.34,0,0,1-.28-.24l.37-.34a1,1,0,0,0,.65.3c.24,0,.52-.1.52-.41,0-.14-.07-.27-.6-.47s-.85-.41-.85-.89a.88.88,0,0,1,1-.86,1.57,1.57,0,0,1,.88.3l-.31.38a1,1,0,0,0-.55-.19c-.29,0-.48.13-.48.36s.25.33.53.43c.7.26.93.53.93.94a.94.94,0,0,1-1,.9,1.36,1.36,0,0,1-.74-.22" transform="translate(-3.09 -3.1)"></path><polygon class="cls-2" points="47.71 15.64 46.83 15.64 46.83 18.2 46.33 18.2 46.33 15.64 45.45 15.64 45.45 15.15 47.71 15.15 47.71 15.64"></polygon><polygon class="cls-2" points="49.31 15.64 49.31 16.43 50.35 16.43 50.35 16.92 49.31 16.92 49.31 17.71 50.73 17.71 50.73 18.2 48.82 18.2 48.82 15.15 50.73 15.15 50.73 15.64 49.31 15.64"></polygon><path class="cls-2" d="M55,21.31V18.25h1a1.42,1.42,0,0,1,1.48,1.53A1.44,1.44,0,0,1,56,21.31Zm.49-.49H56a1,1,0,0,0,0-2.07h-.55Z" transform="translate(-3.09 -3.1)"></path><path class="cls-2" d="M60.25,21.12a1.34,1.34,0,0,1-.28-.24l.37-.34a1,1,0,0,0,.66.3c.24,0,.52-.1.52-.41,0-.14-.07-.27-.6-.47s-.85-.41-.85-.89a.88.88,0,0,1,1-.86,1.57,1.57,0,0,1,.88.3l-.31.38a1,1,0,0,0-.55-.19c-.29,0-.48.13-.48.36s.25.33.53.43c.7.26.93.53.93.94a.94.94,0,0,1-1,.9,1.36,1.36,0,0,1-.74-.22" transform="translate(-3.09 -3.1)"></path><path class="cls-2" d="M62.94,19.78a1.56,1.56,0,1,1,1.56,1.55,1.56,1.56,0,0,1-1.56-1.55m.49,0a1.06,1.06,0,1,0,1.07-1.07,1.06,1.06,0,0,0-1.07,1.07" transform="translate(-3.09 -3.1)"></path><polygon class="cls-2" points="65.89 18.2 64.11 18.2 64.11 15.15 64.6 15.15 64.6 17.71 65.89 17.71 65.89 18.2"></polygon><path class="cls-2" d="M70,20.16V18.25h.49v1.83a.68.68,0,1,0,1.35,0V18.25h.49v1.91a1.17,1.17,0,1,1-2.34,0" transform="translate(-3.09 -3.1)"></path><polygon class="cls-2" points="72.63 15.64 71.75 15.64 71.75 18.2 71.25 18.2 71.25 15.64 70.37 15.64 70.37 15.15 72.63 15.15 72.63 15.64"></polygon><rect class="cls-2" x="73.74" y="15.15" width="0.49" height="3.06"></rect><path class="cls-2" d="M78.45,19.78A1.56,1.56,0,1,1,80,21.34a1.56,1.56,0,0,1-1.56-1.55m.49,0A1.06,1.06,0,1,0,80,18.71a1.06,1.06,0,0,0-1.07,1.07" transform="translate(-3.09 -3.1)"></path><polygon class="cls-2" points="79.62 15.12 79.8 15.12 81.63 17.15 81.63 15.15 82.12 15.15 82.12 18.23 81.94 18.23 80.12 16.21 80.12 18.2 79.62 18.2 79.62 15.12"></polygon><path class="cls-2" d="M86.58,21.12a1.34,1.34,0,0,1-.28-.24l.37-.34a1,1,0,0,0,.66.3c.24,0,.52-.1.52-.41,0-.14-.07-.27-.6-.47s-.85-.41-.85-.89a.88.88,0,0,1,1-.86,1.57,1.57,0,0,1,.88.3l-.31.38a1,1,0,0,0-.55-.19c-.29,0-.48.13-.48.36s.25.33.53.43c.7.26.93.53.93.94a.94.94,0,0,1-1,.9,1.36,1.36,0,0,1-.74-.22" transform="translate(-3.09 -3.1)"></path><path class="cls-2" d="M91.51,21.31H91V18.25h1.22a.92.92,0,0,1,0,1.84h-.73Zm0-1.71h.61c.37,0,.54-.19.54-.43s-.17-.42-.54-.42h-.61Z" transform="translate(-3.09 -3.1)"></path><path class="cls-2" d="M95.08,18.22l1.38,3.09h-.54l-.26-.58H94.35l-.26.58h-.54l1.36-3.09Zm.35,2-.44-1-.44,1Z" transform="translate(-3.09 -3.1)"></path><path class="cls-2" d="M99.92,21.31h-.61l-.87-1.22H98v1.22h-.49V18.25h1.22A.92.92,0,0,1,99,20Zm-1.35-1.71c.37,0,.54-.19.54-.43s-.17-.42-.54-.42H98v.85Z" transform="translate(-3.09 -3.1)"></path><polygon class="cls-2" points="99.77 15.64 98.89 15.64 98.89 18.2 98.39 18.2 98.39 15.64 97.51 15.64 97.51 15.15 99.77 15.15 99.77 15.64"></polygon><polygon class="cls-2" points="100.88 15.12 101.06 15.12 102.89 17.15 102.89 15.15 103.38 15.15 103.38 18.23 103.19 18.23 101.37 16.21 101.37 18.2 100.88 18.2 100.88 15.12"></polygon><polygon class="cls-2" points="105.23 15.64 105.23 16.43 106.26 16.43 106.26 16.92 105.23 16.92 105.23 17.71 106.64 17.71 106.64 18.2 104.73 18.2 104.73 15.15 106.64 15.15 106.64 15.64 105.23 15.64"></polygon><path class="cls-2" d="M113.36,21.31h-.61l-.87-1.22h-.48v1.22h-.49V18.25h1.22a.92.92,0,0,1,.32,1.78ZM112,19.59c.37,0,.54-.19.54-.43s-.17-.42-.54-.42h-.61v.85Z" transform="translate(-3.09 -3.1)"></path></svg> 